<?xml version="1.0" encoding="UTF-8" standalone="no"?>
<!-- Created with Inkscape (http://www.inkscape.org/) -->

<svg
   xmlns:dc="http://purl.org/dc/elements/1.1/"
   xmlns:cc="http://creativecommons.org/ns#"
   xmlns:rdf="http://www.w3.org/1999/02/22-rdf-syntax-ns#"
   xmlns:svg="http://www.w3.org/2000/svg"
   xmlns="http://www.w3.org/2000/svg"
   xmlns:xlink="http://www.w3.org/1999/xlink"
   xmlns:sodipodi="http://sodipodi.sourceforge.net/DTD/sodipodi-0.dtd"
   xmlns:inkscape="http://www.inkscape.org/namespaces/inkscape"
   viewBox="0 0 297 75"
   version="1.1"
   id="svg8"
   inkscape:version="0.92.3 (2405546, 2018-03-11)"
   sodipodi:docname="logo.svg">
  <defs
     id="defs2">
    <linearGradient
       id="linearGradient839"
       inkscape:collect="always">
      <stop
         id="stop835"
         offset="0"
         style="stop-color:#a3d5d5;stop-opacity:1" />
      <stop
         id="stop837"
         offset="1"
         style="stop-color:#ffffff;stop-opacity:1" />
    </linearGradient>
    <linearGradient
       inkscape:collect="always"
       xlink:href="#linearGradient839"
       id="linearGradient827"
       gradientUnits="userSpaceOnUse"
       x1="285.89764"
       y1="263.7381"
       x2="27.970238"
       y2="232.74405" />
    <linearGradient
       inkscape:collect="always"
       xlink:href="#linearGradient839"
       id="linearGradient856"
       gradientUnits="userSpaceOnUse"
       x1="288.01785"
       y1="256.17856"
       x2="27.970238"
       y2="232.74405" />
    <linearGradient
       inkscape:collect="always"
       xlink:href="#linearGradient839"
       id="linearGradient858"
       gradientUnits="userSpaceOnUse"
       x1="288.01785"
       y1="256.17856"
       x2="27.970238"
       y2="232.74405" />
    <linearGradient
       inkscape:collect="always"
       xlink:href="#linearGradient839"
       id="linearGradient860"
       gradientUnits="userSpaceOnUse"
       x1="288.01785"
       y1="256.17856"
       x2="27.970238"
       y2="232.74405" />
    <linearGradient
       inkscape:collect="always"
       xlink:href="#linearGradient839"
       id="linearGradient862"
       gradientUnits="userSpaceOnUse"
       x1="288.01785"
       y1="256.17856"
       x2="27.970238"
       y2="232.74405" />
    <linearGradient
       inkscape:collect="always"
       xlink:href="#linearGradient839"
       id="linearGradient864"
       gradientUnits="userSpaceOnUse"
       x1="288.01785"
       y1="256.17856"
       x2="27.970238"
       y2="232.74405" />
    <linearGradient
       inkscape:collect="always"
       xlink:href="#linearGradient839"
       id="linearGradient866"
       gradientUnits="userSpaceOnUse"
       x1="288.01785"
       y1="256.17856"
       x2="27.970238"
       y2="232.74405" />
    <linearGradient
       inkscape:collect="always"
       xlink:href="#linearGradient839"
       id="linearGradient868"
       gradientUnits="userSpaceOnUse"
       x1="288.01785"
       y1="256.17856"
       x2="27.970238"
       y2="232.74405" />
    <linearGradient
       inkscape:collect="always"
       xlink:href="#linearGradient839"
       id="linearGradient870"
       gradientUnits="userSpaceOnUse"
       x1="288.01785"
       y1="256.17856"
       x2="27.970238"
       y2="232.74405" />
    <linearGradient
       inkscape:collect="always"
       xlink:href="#linearGradient839"
       id="linearGradient872"
       gradientUnits="userSpaceOnUse"
       x1="288.01785"
       y1="256.17856"
       x2="27.970238"
       y2="232.74405" />
  </defs>
  <sodipodi:namedview
     id="base"
     pagecolor="#ffffff"
     bordercolor="#666666"
     borderopacity="1.0"
     inkscape:pageopacity="0.0"
     inkscape:pageshadow="2"
     inkscape:zoom="1.979899"
     inkscape:cx="-9.6858767"
     inkscape:cy="121.06898"
     inkscape:document-units="mm"
     inkscape:current-layer="text817"
     showgrid="false"
     height="100mm"
     inkscape:pagecheckerboard="true"
     inkscape:window-width="1920"
     inkscape:window-height="1137"
     inkscape:window-x="-8"
     inkscape:window-y="-8"
     inkscape:window-maximized="1" />
  <metadata
     id="metadata5">
    <rdf:RDF>
      <cc:Work
         rdf:about="">
        <dc:format>image/svg+xml</dc:format>
        <dc:type
           rdf:resource="http://purl.org/dc/dcmitype/StillImage" />
        <dc:title />
      </cc:Work>
    </rdf:RDF>
  </metadata>
  <g
     inkscape:label="Layer 1"
     inkscape:groupmode="layer"
     id="layer1"
     transform="translate(0,-222)">
    <g
       aria-label="AtomBlast"
       style="font-style:normal;font-variant:normal;font-weight:normal;font-stretch:normal;font-size:50.79999924px;line-height:1.25;font-family:aldrich;-inkscape-font-specification:aldrich;letter-spacing:0px;word-spacing:0px;fill:url(#linearGradient827);fill-opacity:1;stroke:none;stroke-width:0.26458332"
       id="text817"
       transform="translate(-3.7797619,10.583333)">
      <path
         d="m 37.701946,228.16818 13.716992,35.56992 h -5.084961 l -3.150195,-8.18555 H 27.13515 l -3.150196,8.18555 h -5.084961 l 13.716992,-35.56992 z m -8.632031,22.29941 h 12.154297 l -6.052344,-15.67656 z"
         style="font-size:50.79999924px;fill:url(#linearGradient856);fill-opacity:1.0;stroke-width:0.26458332"
         id="path837"
         inkscape:connector-curvature="0" />
      <path
         d="m 55.536515,237.32111 h 6.449219 v -8.13594 h 4.886523 v 8.13594 h 8.681641 v 4.88652 h -8.681641 v 16.64394 h 8.681641 v 4.88653 h -8.681641 q -0.992187,0 -1.885156,-0.37207 -0.892969,-0.39688 -1.562695,-1.0418 -0.669727,-0.66973 -1.066602,-1.56269 -0.37207,-0.89297 -0.37207,-1.90997 v -16.64394 h -6.449219 z"
         style="font-size:50.79999924px;fill:url(#linearGradient858);fill-opacity:1.0;stroke-width:0.26458332"
         id="path839"
         inkscape:connector-curvature="0" />
      <path
         d="m 106.51014,258.85157 q 0,1.017 -0.39687,1.90997 -0.37207,0.89296 -1.0418,1.56269 -0.64492,0.64492 -1.53789,1.0418 -0.86816,0.37207 -1.88515,0.37207 H 88.526747 q -0.992188,0 -1.885157,-0.37207 -0.892968,-0.39688 -1.562695,-1.0418 -0.644922,-0.66973 -1.041797,-1.56269 -0.37207,-0.89297 -0.37207,-1.90997 v -16.64394 q 0,-1.01699 0.37207,-1.90996 0.396875,-0.89297 1.041797,-1.53789 0.669727,-0.66973 1.562695,-1.0418 0.892969,-0.39687 1.885157,-0.39687 h 13.121683 q 1.01699,0 1.88515,0.39687 0.89297,0.37207 1.53789,1.0418 0.66973,0.64492 1.0418,1.53789 0.39687,0.89297 0.39687,1.90996 z M 88.526747,242.20763 v 16.64394 h 13.121683 v -16.64394 z"
         style="font-size:50.79999924px;fill:url(#linearGradient860);fill-opacity:1.0;stroke-width:0.26458332"
         id="path841"
         inkscape:connector-curvature="0" />
      <path
         d="m 135.55644,242.20763 v 21.53047 h -4.88653 V 242.20763 H 119.483 v 21.53047 h -4.86172 v -26.41699 h 4.86172 v 4.66328 q 0.0496,-0.96739 0.44648,-1.81074 0.39688,-0.86817 1.0418,-1.48829 0.66973,-0.64492 1.53789,-0.99218 0.86817,-0.37207 1.86035,-0.37207 h 6.30039 q 0.96739,0 1.83555,0.37207 0.86816,0.34726 1.53789,0.99218 0.66973,0.62012 1.0666,1.48829 0.42168,0.84335 0.44649,1.81074 0.0496,-0.96739 0.42168,-1.81074 0.39687,-0.86817 1.04179,-1.48829 0.66973,-0.64492 1.53789,-0.99218 0.86817,-0.37207 1.86036,-0.37207 h 6.30039 q 1.01699,0 1.90996,0.39687 0.89297,0.37207 1.53789,1.0418 0.66972,0.64492 1.04179,1.53789 0.39688,0.89297 0.39688,1.90996 v 21.53047 h -4.88652 v -21.53047 z"
         style="font-size:50.79999924px;fill:url(#linearGradient862);fill-opacity:1.0;stroke-width:0.26458332"
         id="path843"
         inkscape:connector-curvature="0" />
      <path
         d="m 183.42948,245.18419 q 1.11621,0.34727 2.03398,0.99219 0.91777,0.64492 1.5627,1.66191 0.64492,0.99219 0.99218,2.35645 0.34727,1.36426 0.34727,3.12539 v 1.78594 q 0,8.63203 -8.63203,8.63203 H 160.2619 v -35.56992 h 18.45469 q 8.63203,0 8.63203,8.65683 v 0.64492 q 0,3.00137 -0.96739,4.91133 -0.94257,1.88516 -2.95175,2.80293 z m -18.18184,3.05098 v 10.51719 h 14.33711 q 2.00918,0 2.90215,-0.94258 0.89297,-0.94258 0.89297,-2.95176 v -2.75332 q 0,-2.03398 -0.89297,-2.95176 -0.89297,-0.91777 -2.90215,-0.91777 z m 0,-15.08125 v 10.12031 h 13.66738 q 1.83555,-0.0744 2.6293,-0.99219 0.81855,-0.94257 0.81855,-2.87734 v -2.33164 q 0,-2.03398 -0.89296,-2.97656 -0.89297,-0.94258 -2.90215,-0.94258 z"
         style="font-size:50.79999924px;fill:url(#linearGradient864);fill-opacity:1.0;stroke-width:0.26458332"
         id="path845"
         inkscape:connector-curvature="0" />
      <path
         d="m 200.34627,227.15118 v 36.58692 h -4.86172 v -36.58692 z"
         style="font-size:50.79999924px;fill:url(#linearGradient866);fill-opacity:1.0;stroke-width:0.26458332"
         id="path847"
         inkscape:connector-curvature="0" />
      <path
         d="m 208.48222,252.20392 q 0,-1.01699 0.37207,-1.88516 0.39688,-0.89297 1.0418,-1.56269 0.66972,-0.66973 1.56269,-1.0418 0.89297,-0.39687 1.88516,-0.39687 h 12.60078 v -5.10977 h -15.94941 v -4.88652 h 15.94941 q 1.01699,0 1.90996,0.39687 0.89297,0.37207 1.53789,1.0418 0.66973,0.64492 1.0418,1.53789 0.39687,0.89297 0.39687,1.90996 v 21.53047 h -4.88652 v -4.46485 q -0.0744,0.91778 -0.49609,1.73633 -0.42168,0.81856 -1.09141,1.43867 -0.64492,0.59532 -1.48828,0.94258 -0.84336,0.34727 -1.78594,0.34727 h -7.73906 q -0.99219,0 -1.88516,-0.37207 -0.89297,-0.39688 -1.56269,-1.0418 -0.64492,-0.66973 -1.0418,-1.56269 -0.37207,-0.89297 -0.37207,-1.90997 z m 4.86172,6.64765 h 12.60078 v -6.64765 h -12.60078 z"
         style="font-size:50.79999924px;fill:url(#linearGradient868);fill-opacity:1.0;stroke-width:0.26458332"
         id="path849"
         inkscape:connector-curvature="0" />
      <path
         d="m 254.89178,258.85157 v -6.12675 h -11.58379 q -1.01699,0 -1.90996,-0.37207 -0.89297,-0.39688 -1.5627,-1.0418 -0.64492,-0.66973 -1.04179,-1.5627 -0.37207,-0.89296 -0.37207,-1.90996 v -5.63066 q 0,-1.01699 0.37207,-1.90996 0.39687,-0.89297 1.04179,-1.53789 0.66973,-0.66973 1.5627,-1.0418 0.89297,-0.39687 1.90996,-0.39687 h 15.45332 v 4.88652 h -15.45332 v 5.63066 h 11.58379 q 1.01699,0 1.88515,0.39688 0.89297,0.37207 1.5627,1.0418 0.66973,0.64492 1.0418,1.53789 0.39687,0.89296 0.39687,1.90996 v 6.12675 q 0,1.017 -0.39687,1.90997 -0.37207,0.89296 -1.0418,1.56269 -0.66973,0.64492 -1.5627,1.0418 -0.86816,0.37207 -1.88515,0.37207 h -16.47031 v -4.88653 z"
         style="font-size:50.79999924px;fill:url(#linearGradient870);fill-opacity:1.0;stroke-width:0.26458332"
         id="path851"
         inkscape:connector-curvature="0" />
      <path
         d="m 265.88026,237.32111 h 6.44922 v -8.13594 h 4.88652 v 8.13594 h 8.68164 v 4.88652 H 277.216 v 16.64394 h 8.68164 v 4.88653 H 277.216 q -0.99219,0 -1.88516,-0.37207 -0.89297,-0.39688 -1.56269,-1.0418 -0.66973,-0.66973 -1.0666,-1.56269 -0.37207,-0.89297 -0.37207,-1.90997 v -16.64394 h -6.44922 z"
         style="font-size:50.79999924px;fill:url(#linearGradient872);fill-opacity:1.0;stroke-width:0.26458332"
         id="path853"
         inkscape:connector-curvature="0" />
    </g>
  </g>
</svg>
