<?xml version="1.0" encoding="UTF-8" standalone="no"?>
<!-- Created with Inkscape (http://www.inkscape.org/) -->

<svg
   xmlns:dc="http://purl.org/dc/elements/1.1/"
   xmlns:cc="http://creativecommons.org/ns#"
   xmlns:rdf="http://www.w3.org/1999/02/22-rdf-syntax-ns#"
   xmlns:svg="http://www.w3.org/2000/svg"
   xmlns="http://www.w3.org/2000/svg"
   xmlns:sodipodi="http://sodipodi.sourceforge.net/DTD/sodipodi-0.dtd"
   xmlns:inkscape="http://www.inkscape.org/namespaces/inkscape"
   width="210mm"
   height="210mm"
   viewBox="0 0 210 210"
   version="1.1"
   id="svg8"
   inkscape:version="0.92.3 (2405546, 2018-03-11)"
   sodipodi:docname="oxygentest.svg">
  <defs
     id="defs2" />
  <sodipodi:namedview
     id="base"
     pagecolor="#ffffff"
     bordercolor="#666666"
     borderopacity="1.0"
     inkscape:pageopacity="0.0"
     inkscape:pageshadow="2"
     inkscape:zoom="0.49497475"
     inkscape:cx="440.13191"
     inkscape:cy="482.47007"
     inkscape:document-units="mm"
     inkscape:current-layer="g844"
     showgrid="false"
     inkscape:window-width="1920"
     inkscape:window-height="1137"
     inkscape:window-x="-8"
     inkscape:window-y="-8"
     inkscape:window-maximized="1" />
  <metadata
     id="metadata5">
    <rdf:RDF>
      <cc:Work
         rdf:about="">
        <dc:format>image/svg+xml</dc:format>
        <dc:type
           rdf:resource="http://purl.org/dc/dcmitype/StillImage" />
        <dc:title></dc:title>
      </cc:Work>
    </rdf:RDF>
  </metadata>
  <g
     inkscape:label="Layer 1"
     inkscape:groupmode="layer"
     id="layer1"
     transform="translate(0,-87)">
    <g
       id="g844"
       transform="matrix(1.2420363,0,0,1.2420363,-186.33825,-103.24856)">
      <path
         style="fill:#c8c8c8;stroke-width:0.35006902"
         d="m 230.31527,313.88362 c -3.9102,-0.41057 -9.1872,-1.33868 -12.91713,-2.27204 -33.29487,-8.33158 -57.069,-38.65023 -57.069,-72.7789 0,-6.77165 0.53991,-11.02647 2.28321,-17.99315 8.33157,-33.29487 38.65023,-57.069 72.77894,-57.069 6.7716,0 11.02643,0.53991 17.99311,2.28321 33.29487,8.33157 57.069,38.65023 57.069,72.77894 0,6.7716 -0.53991,11.02643 -2.28321,17.99311 -8.18306,32.70142 -37.54052,56.23309 -71.20359,57.07371 -2.88807,0.0719 -5.88116,0.0649 -6.65133,-0.0165 z m 12.93103,-45.0954 c 11.21989,-3.10464 19.02376,-10.99265 22.1898,-22.42907 0.83504,-3.01633 0.81524,-12.10322 -0.0331,-15.18566 -3.13681,-11.39761 -10.97234,-19.19845 -22.48522,-22.38567 -2.94571,-0.81548 -12.10732,-0.81548 -15.05298,0 -6.70446,1.85606 -11.82765,5.01673 -15.87827,9.79587 -3.27118,3.85956 -5.22271,7.55624 -6.54287,12.39394 -0.78178,2.86479 -1.05819,9.66281 -0.52684,12.95657 2.06358,12.79206 11.81677,22.79239 24.69831,25.32418 2.60265,0.51154 11.14869,0.21666 13.63119,-0.47016 z m -11.18069,-5.50192 c -5.26754,-0.97186 -10.45056,-3.62326 -13.97764,-7.15034 -5.15309,-5.15305 -8.24843,-13.63198 -7.24341,-19.84131 1.93002,-11.92419 10.08451,-20.07868 22.0087,-22.0087 6.20933,-1.00502 14.68826,2.09032 19.84131,7.24341 5.15308,5.15308 8.24842,13.63198 7.24341,19.84131 -1.8998,11.73738 -9.8999,19.88645 -21.5479,21.94908 -2.40253,0.42541 -3.87977,0.4176 -6.32447,-0.0331 z"
         id="path848"
         inkscape:connector-curvature="0" />
      <path
         style="fill:#a5a5a5;stroke-width:0.35006902"
         d="m 231.89058,308.28916 c -1.57791,-0.68239 -3.38121,-2.41746 -4.23576,-4.07551 -0.399,-0.77388 -0.99332,-1.3706 -1.4571,-1.46268 -0.43088,-0.0856 -2.20118,-0.4183 -3.93402,-0.73953 -7.25805,-1.34529 -16.28743,-5.12612 -22.93685,-9.60426 -3.16493,-2.13143 -3.29038,-2.18113 -4.55232,-1.80305 -1.99081,0.59647 -5.21858,0.46564 -6.81762,-0.2762 -1.73049,-0.80291 -3.46532,-2.59124 -4.18309,-4.31213 -0.63418,-1.52053 -0.7091,-4.71365 -0.15423,-6.56632 0.37791,-1.26194 0.32829,-1.38739 -1.80305,-4.55232 -7.18685,-10.67147 -10.83243,-22.80876 -10.83243,-36.0644 0,-13.25568 3.64558,-25.39297 10.83243,-36.06444 2.13143,-3.16493 2.18113,-3.29038 1.80305,-4.55232 -0.55508,-1.85262 -0.48016,-5.04579 0.15423,-6.56632 0.71777,-1.72089 2.4526,-3.50922 4.18309,-4.31213 1.59904,-0.74193 4.82681,-0.87275 6.81762,-0.2762 1.26194,0.37791 1.38739,0.3283 4.55232,-1.80304 6.64942,-4.47815 15.6788,-8.25897 22.93685,-9.60427 1.73284,-0.32127 3.50314,-0.65398 3.93402,-0.73953 0.46378,-0.0922 1.05823,-0.6888 1.4571,-1.46268 1.54897,-3.00537 4.26669,-4.63282 7.73647,-4.63282 3.46973,0 6.18746,1.62745 7.73643,4.63282 0.39899,0.77388 0.99331,1.3706 1.4571,1.46268 0.43087,0.0856 2.20122,0.41835 3.93406,0.73953 7.258,1.3453 16.28739,5.12612 22.93681,9.60427 3.16493,2.13142 3.29037,2.18112 4.55232,1.80304 1.9908,-0.59646 5.21858,-0.46564 6.81762,0.2762 1.73049,0.80291 3.46531,2.59124 4.18309,4.31213 0.63418,1.52053 0.7091,4.7137 0.15422,6.56632 -0.3779,1.26194 -0.32829,1.38739 1.80305,4.55232 7.18685,10.67147 10.83243,22.80876 10.83243,36.06444 0,13.25564 -3.64558,25.39293 -10.83243,36.0644 -2.13142,3.16493 -2.18112,3.29038 -1.80305,4.55232 0.55508,1.85267 0.48016,5.04579 -0.15422,6.56632 -0.71778,1.72089 -2.4526,3.50922 -4.18309,4.31213 -1.59904,0.74193 -4.82682,0.87275 -6.81762,0.2762 -1.26195,-0.37791 -1.38739,-0.3283 -4.55232,1.80305 -6.64942,4.47814 -15.67881,8.25897 -22.93681,9.60426 -1.73284,0.32127 -3.50319,0.65399 -3.93406,0.73953 -0.46379,0.0922 -1.05823,0.6888 -1.4571,1.46268 -0.87585,1.69931 -2.67753,3.40826 -4.31205,4.08998 -1.64779,0.68727 -5.32021,0.67962 -6.92509,-0.0165 z m -3.13598,-13.31137 c 2.0673,-2.14094 3.80746,-2.91735 6.5604,-2.92694 2.82614,-0.008 4.37804,0.65638 6.57992,2.82477 l 1.77771,1.75074 3.20152,-0.69876 c 4.62054,-1.00844 10.15389,-2.93921 14.13454,-4.932 3.63728,-1.82087 8.55878,-4.93167 9.30199,-5.87959 0.24063,-0.30679 0.441,-1.51259 0.44526,-2.67914 0.0165,-4.86122 3.43178,-8.24723 8.31582,-8.24723 1.12459,0 2.2959,-0.19681 2.60286,-0.43757 2.01168,-1.57722 6.93864,-10.74908 8.86226,-16.4976 4.27405,-12.77283 4.27405,-24.07079 0,-36.84358 -1.92362,-5.74856 -6.85058,-14.92043 -8.86226,-16.4976 -0.30679,-0.24064 -1.51259,-0.44104 -2.67914,-0.4453 -4.86122,-0.0165 -8.24723,-3.43178 -8.24723,-8.31582 0,-1.12459 -0.19681,-2.29591 -0.43757,-2.60286 -0.74321,-0.94792 -5.66471,-4.05872 -9.30199,-5.87959 -3.98065,-1.99279 -9.514,-3.92356 -14.13454,-4.93201 l -3.20152,-0.69872 -1.77771,1.75071 c -2.18405,2.15086 -3.74911,2.83246 -6.50363,2.83246 -2.75456,0 -4.31962,-0.6816 -6.50364,-2.83246 l -1.77774,-1.75071 -3.20152,0.69872 c -4.62054,1.00845 -10.15389,2.93922 -14.13455,4.93201 -3.63727,1.82087 -8.55877,4.93167 -9.30194,5.87959 -0.24064,0.30679 -0.43761,1.47827 -0.43761,2.60286 0,4.88404 -3.38601,8.2982 -8.24723,8.31582 -1.16656,0.004 -2.37219,0.20466 -2.67914,0.4453 -2.01169,1.57717 -6.93865,10.74904 -8.86226,16.4976 -4.27402,12.77279 -4.27402,24.07075 0,36.84358 1.92361,5.74852 6.85057,14.92038 8.86226,16.4976 0.30679,0.24063 1.47827,0.43757 2.60286,0.43757 4.88404,0 8.2982,3.38601 8.31582,8.24723 0.004,1.16655 0.20466,2.37218 0.4453,2.67914 0.74317,0.94792 5.66467,4.05872 9.30194,5.87959 4.57994,2.2928 13.80878,5.30623 17.05537,5.56895 0.20053,0.0165 1.06699,-0.69781 1.92539,-1.58676 z m 2.96096,-6.38828 c -1.60967,-0.73312 -3.65604,-2.86008 -4.33975,-4.51068 -0.36964,-0.89293 -0.7755,-1.2115 -1.91551,-1.50428 -17.79022,-4.5689 -30.20268,-17.35037 -34.05871,-35.07134 -0.464,-2.13229 -0.62984,-4.41525 -0.62984,-8.67053 0,-4.25532 0.1658,-6.53824 0.62984,-8.67058 3.85483,-17.7155 16.27188,-30.505 34.04664,-35.06807 1.18135,-0.30348 1.54289,-0.6092 2.05067,-1.73524 0.7769,-1.72287 2.77635,-3.68916 4.46797,-4.39387 1.67123,-0.69624 5.17756,-0.69624 6.8488,0 1.69162,0.70471 3.69106,2.671 4.46801,4.39387 0.50774,1.12604 0.86931,1.43196 2.05063,1.73524 17.77476,4.56307 30.1918,17.35257 34.04664,35.06807 0.87953,4.04198 0.87953,13.29914 0,17.34111 -3.85484,17.71551 -16.27188,30.50505 -34.04664,35.06807 -1.18132,0.30349 -1.54289,0.60925 -2.05063,1.73524 -0.77695,1.72288 -2.77639,3.68917 -4.46801,4.39388 -1.78155,0.74217 -5.34936,0.68644 -7.10011,-0.11081 z m -2.96096,-13.21558 c 2.0673,-2.14097 3.80746,-2.91734 6.5604,-2.92697 2.83684,-0.008 4.37829,0.65658 6.61635,2.86082 l 1.81413,1.78667 1.68657,-0.45696 c 14.60698,-3.95767 25.84114,-16.2403 28.49415,-31.15353 0.99811,-5.61054 0.47425,-13.00905 -1.31371,-18.55364 -2.98052,-9.24282 -9.79227,-17.54293 -18.31747,-22.3198 -2.16558,-1.2134 -6.32696,-2.89559 -8.86297,-3.58269 l -1.68657,-0.45697 -1.81413,1.78672 c -2.22011,2.1865 -3.77496,2.86847 -6.54006,2.86847 -2.76515,0 -4.31999,-0.68197 -6.5401,-2.86847 l -1.81413,-1.78672 -1.68654,0.45697 c -14.60701,3.95767 -25.84117,16.24029 -28.49418,31.15352 -0.5992,3.36819 -0.5992,9.93443 0,13.30261 2.53228,14.2344 12.78478,26.01181 26.63259,30.59369 1.44403,0.47777 2.86839,0.87858 3.16526,0.89061 0.29687,0.0124 1.24201,-0.70541 2.10041,-1.59433 z m 2.43586,-19.92263 c -3.22116,-0.89247 -5.62158,-2.27333 -7.88304,-4.53479 -7.39214,-7.39209 -6.47424,-19.69572 1.93097,-25.8833 3.04672,-2.2429 6.03563,-3.17866 10.1529,-3.17866 4.11722,0 7.10614,0.93576 10.15286,3.17866 4.49182,3.30666 6.82523,8.02445 6.82523,13.79947 0,2.57416 -0.18441,3.85968 -0.81623,5.68906 -1.61058,4.6635 -5.71701,8.8174 -10.28872,10.40764 -2.88791,1.00452 -7.4745,1.24218 -10.07397,0.52192 z"
         id="path846"
         inkscape:connector-curvature="0" />
      <path
         style="opacity:1;fill:none;fill-opacity:1;stroke:none;stroke-width:2.69966269;stroke-miterlimit:4;stroke-dasharray:none;stroke-opacity:1"
         d="m 389.05859,637.17419 c -2.51326,-0.54519 -6.32496,-2.04642 -8.47046,-3.33607 -5.42709,-3.2622 -13.64044,-12.19338 -16.87631,-18.35125 -1.47185,-2.80094 -3.37851,-5.5419 -4.23703,-6.09102 -0.85851,-0.54912 -6.22165,-2.35449 -11.91808,-4.01193 -26.49252,-7.70827 -52.07355,-20.00407 -71.48693,-34.36094 -24.07652,-17.80543 -44.31186,-40.78108 -58.79463,-66.75674 -11.59506,-20.79639 -21.51757,-49.64674 -24.41466,-70.98722 -1.34303,-9.893 -1.56017,-49.39178 -0.32985,-60 2.34501,-20.21936 11.35536,-47.80377 22.62988,-69.27939 23.29632,-44.37467 60.95051,-77.98889 108.85816,-97.1786 7.00568,-2.80617 17.95941,-6.45559 29.71175,-9.89898 5.75975,-1.68759 7.47407,-3.27909 11.68343,-10.84645 3.54724,-6.37705 11.0888,-13.62983 17.39134,-16.72541 9.69205,-4.76037 26.18146,-4.78112 35.83516,-0.0451 6.79015,3.33119 14.06926,10.65366 18.58005,18.6907 2.07864,3.70359 4.14282,6.45176 5.2926,7.04633 1.03671,0.5361 6.37243,2.27236 11.85717,3.85836 77.41585,22.38593 131.70471,78.31013 151.0162,155.56522 3.42765,13.71224 4.47246,24.89575 4.46025,47.74188 -0.0121,22.71665 -1.01901,33.53402 -4.40419,47.31652 -7.36329,29.97906 -20.41577,57.24881 -39.23399,81.96919 -6.93065,9.10439 -25.56042,27.87635 -34.36602,34.6283 -24.2776,18.6156 -49.78425,31.41235 -79.17739,39.7235 -5.24399,1.48278 -10.23372,3.24595 -11.08828,3.91815 -0.85458,0.6722 -2.8233,3.58646 -4.37496,6.47612 -1.87462,3.49111 -4.74896,7.18618 -8.56672,11.01283 -6.24078,6.25532 -11.05915,9.10403 -17.42586,10.30254 -5.32823,1.00302 -16.67088,0.80815 -22.15063,-0.38055 z m 59.81468,-57.7915 c 69.52599,-20.01168 120.32753,-76.23624 133.08732,-147.2943 1.45032,-8.07667 1.64415,-11.41702 1.63034,-28.09509 -0.0168,-20.25904 -0.80751,-28.34053 -4.29106,-43.85637 -9.79649,-43.63381 -39.13437,-85.48444 -78.17173,-111.51233 -14.60196,-9.73575 -35.48526,-19.18489 -53.16241,-24.05456 l -8.17688,-2.25256 -8.11645,7.8022 c -11.8546,11.39561 -17.49219,13.87362 -31.56311,13.87362 -11.98735,0 -18.47505,-2.70065 -28.22241,-11.74822 -3.36374,-3.12224 -7.12444,-6.60568 -8.35712,-7.74097 l -2.24123,-2.06417 -6.84355,1.86439 c -21.38867,5.82692 -43.01254,16.08374 -60.10255,28.50838 -27.45539,19.96038 -50.16997,48.35924 -62.80914,78.52699 -11.83494,28.24817 -15.93198,55.95438 -13.23687,89.51416 3.07932,38.34408 21.58999,78.12961 50.19436,107.8842 21.8347,22.71271 48.6492,39.42239 78.70879,49.04807 10.93066,3.50022 12.80621,3.78171 15.11553,2.26859 1.04222,-0.68289 4.40467,-3.58869 7.47211,-6.45732 10.01043,-9.36165 15.60931,-12.2548 25.2695,-13.05772 15.42437,-1.28201 23.36558,1.34512 34.64286,11.46067 3.73214,3.34767 7.56496,6.93345 8.51736,7.96838 0.95242,1.03494 1.81064,1.88172 1.90717,1.88172 0.0965,0 4.03366,-1.1105 8.74917,-2.46776 z"
         id="path825"
         inkscape:connector-curvature="0"
         transform="matrix(0.21302383,0,0,0.21302383,150.02641,153.17472)" />
      <path
         style="opacity:1;fill:#a5a5a5;fill-opacity:1;stroke:none;stroke-width:2.69966269;stroke-miterlimit:4;stroke-dasharray:none;stroke-opacity:1"
         d="m 389.05859,637.17419 c -2.51326,-0.54519 -6.32496,-2.04642 -8.47046,-3.33607 -5.42709,-3.2622 -13.64044,-12.19338 -16.87631,-18.35125 -1.47185,-2.80094 -3.37851,-5.5419 -4.23703,-6.09102 -0.85851,-0.54912 -6.22165,-2.35449 -11.91808,-4.01193 -26.49252,-7.70827 -52.07355,-20.00407 -71.48693,-34.36094 -24.07652,-17.80543 -44.31186,-40.78108 -58.79463,-66.75674 -11.59506,-20.79639 -21.51757,-49.64674 -24.41466,-70.98722 -1.34303,-9.893 -1.56017,-49.39178 -0.32985,-60 2.34501,-20.21936 11.35536,-47.80377 22.62988,-69.27939 23.29632,-44.37467 60.95051,-77.98889 108.85816,-97.1786 7.00568,-2.80617 17.95941,-6.45559 29.71175,-9.89898 5.75975,-1.68759 7.47407,-3.27909 11.68343,-10.84645 3.54724,-6.37705 11.0888,-13.62983 17.39134,-16.72541 9.69205,-4.76037 26.18146,-4.78112 35.83516,-0.0451 6.79015,3.33119 14.06926,10.65366 18.58005,18.6907 2.07864,3.70359 4.14282,6.45176 5.2926,7.04633 1.03671,0.5361 6.37243,2.27236 11.85717,3.85836 77.41585,22.38593 131.70471,78.31013 151.0162,155.56522 3.42765,13.71224 4.47246,24.89575 4.46025,47.74188 -0.0121,22.71665 -1.01901,33.53402 -4.40419,47.31652 -7.36329,29.97906 -20.41577,57.24881 -39.23399,81.96919 -6.93065,9.10439 -25.56042,27.87635 -34.36602,34.6283 -24.2776,18.6156 -49.78425,31.41235 -79.17739,39.7235 -5.24399,1.48278 -10.23372,3.24595 -11.08828,3.91815 -0.85458,0.6722 -2.8233,3.58646 -4.37496,6.47612 -1.87462,3.49111 -4.74896,7.18618 -8.56672,11.01283 -6.24078,6.25532 -11.05915,9.10403 -17.42586,10.30254 -5.32823,1.00302 -16.67088,0.80815 -22.15063,-0.38055 z m 59.81468,-57.7915 c 69.52599,-20.01168 120.32753,-76.23624 133.08732,-147.2943 1.45032,-8.07667 1.64415,-11.41702 1.63034,-28.09509 -0.0168,-20.25904 -0.80751,-28.34053 -4.29106,-43.85637 -9.79649,-43.63381 -39.13437,-85.48444 -78.17173,-111.51233 -14.60196,-9.73575 -35.48526,-19.18489 -53.16241,-24.05456 l -8.17688,-2.25256 -8.11645,7.8022 c -11.8546,11.39561 -17.49219,13.87362 -31.56311,13.87362 -11.98735,0 -18.47505,-2.70065 -28.22241,-11.74822 -3.36374,-3.12224 -7.12444,-6.60568 -8.35712,-7.74097 l -2.24123,-2.06417 -6.84355,1.86439 c -21.38867,5.82692 -43.01254,16.08374 -60.10255,28.50838 -27.45539,19.96038 -50.16997,48.35924 -62.80914,78.52699 -11.83494,28.24817 -15.93198,55.95438 -13.23687,89.51416 3.07932,38.34408 21.58999,78.12961 50.19436,107.8842 21.8347,22.71271 48.6492,39.42239 78.70879,49.04807 10.93066,3.50022 12.80621,3.78171 15.11553,2.26859 1.04222,-0.68289 4.40467,-3.58869 7.47211,-6.45732 10.01043,-9.36165 15.60931,-12.2548 25.2695,-13.05772 15.42437,-1.28201 23.36558,1.34512 34.64286,11.46067 3.73214,3.34767 7.56496,6.93345 8.51736,7.96838 0.95242,1.03494 1.81064,1.88172 1.90717,1.88172 0.0965,0 4.03366,-1.1105 8.74917,-2.46776 z"
         id="path831"
         inkscape:connector-curvature="0"
         transform="matrix(0.21302383,0,0,0.21302383,150.02641,153.17472)" />
      <path
         style="opacity:1;fill:#a5a5a5;fill-opacity:1;stroke:none;stroke-width:2.69966269;stroke-miterlimit:4;stroke-dasharray:none;stroke-opacity:1"
         d="m 390.41386,729.61162 c -2.16072,-0.3538 -5.69096,-1.5015 -7.845,-2.55046 -4.90692,-2.38955 -14.65684,-11.97046 -17.6597,-17.35357 -3.83154,-6.86867 -4.1902,-7.05044 -19.9399,-10.10581 -28.9846,-5.62286 -50.06893,-12.62032 -77.0554,-25.57311 -13.51469,-6.4867 -23.21058,-11.99662 -38.0344,-21.614 -5.99034,-3.8864 -11.86913,-7.40698 -13.06399,-7.82351 -1.64864,-0.57472 -3.24206,-0.48977 -6.60846,0.35229 -11.68998,2.92413 -24.51708,2.13956 -33.07215,-2.02286 -8.7617,-4.26295 -17.55582,-14.39388 -19.68567,-22.6781 -1.44205,-5.60895 -1.24154,-21.88448 0.33934,-27.54494 l 1.25958,-4.51005 -1.73261,-3.78451 c -0.95293,-2.08149 -3.67024,-6.66619 -6.03846,-10.18824 C 118.34427,525.23669 101.58572,474.59783 98.999947,416.25046 96.671421,363.70781 106.6848,313.86967 128.52719,269.2888 c 6.48926,-13.24474 11.81688,-22.5257 21.53047,-37.50708 4.11465,-6.34605 7.77909,-12.61724 8.1432,-13.93596 0.46813,-1.69541 0.3597,-3.49986 -0.3702,-6.16078 -0.56772,-2.06971 -1.22767,-7.15166 -1.46655,-11.29323 -0.83809,-14.53048 2.0659,-23.08014 10.77856,-31.73325 5.92261,-5.88213 10.66124,-8.62395 17.35662,-10.0427 6.25244,-1.3249 16.35928,-1.31031 22.70002,0.0328 8.8932,1.88373 9.94542,1.62937 19.28762,-4.66276 25.78523,-17.36675 53.04116,-30.72364 82.14121,-40.25368 12.35339,-4.04564 20.88147,-6.17528 36.07143,-9.00781 6.48214,-1.20875 12.81667,-2.65956 14.07673,-3.22402 1.62943,-0.72993 3.6024,-3.047132 6.83225,-8.024316 8.97016,-13.823024 19.41916,-19.66747 35.16245,-19.66747 15.49865,0 26.78183,6.249954 34.86343,19.311486 2.09214,3.381323 4.62094,6.757876 5.61955,7.50345 1.18686,0.88611 6.61253,2.29834 15.66635,4.07774 28.23008,5.54822 47.38948,11.7431 72.40043,23.40952 15.67844,7.31325 25.85388,13.02679 42.59491,23.91718 13.20516,8.59023 13.17316,8.58078 22.42702,6.62066 10.11192,-2.14187 22.71442,-1.07259 30.19912,2.56231 5.36139,2.60372 13.01317,9.94177 16.45931,15.78447 4.46411,7.56859 5.60249,22.44616 2.62011,34.24238 -1.16497,4.60783 -1.15715,4.84016 0.27181,8.07056 0.80923,1.82939 4.65758,8.21226 8.5519,14.18416 27.49917,42.16972 42.26839,82.37771 48.46039,131.92943 2.0222,16.18268 1.83021,59.47844 -0.3363,75.83973 -2.0716,15.64457 -3.84111,24.78112 -7.65348,39.51742 -8.55531,33.06958 -20.86761,60.1225 -42.09852,92.5 -8.57357,13.07484 -8.62158,13.20557 -7.17568,19.53815 1.63258,7.15023 2.09295,16.30153 1.13716,22.6047 -2.12139,13.99004 -13.69051,26.76997 -27.2218,30.0708 -5.82314,1.4205 -19.26579,1.24077 -25.5238,-0.34127 -4.04631,-1.02292 -5.6443,-1.13964 -7.36933,-0.5383 -1.21146,0.42232 -7.88646,4.41845 -14.83333,8.88029 -15.23254,9.78356 -24.27692,14.89128 -37.58724,21.227 -26.50263,12.61526 -46.76003,19.26874 -75.9292,24.93871 -9.72205,1.88979 -14.19131,3.07136 -15.27554,4.0385 -0.84296,0.75192 -3.20162,3.93856 -5.24149,7.08142 -6.82002,10.50775 -15.84043,17.1859 -25.44143,18.83522 -5.41489,0.93021 -14.25148,0.92904 -19.94149,-0.003 z m -27.41776,-57.9001 c 1.13333,-0.86211 4.56324,-3.9301 7.62202,-6.81773 10.45819,-9.87307 16.96165,-12.58793 30.15288,-12.58729 13.69398,6.5e-4 19.64082,2.70222 32.03884,14.5548 l 6.94921,6.64349 7.64883,-1.61501 c 34.26592,-7.23505 64.58299,-18.71796 91.5774,-34.68589 10.5729,-6.25416 21.96289,-13.97752 24.45436,-16.58209 2.17922,-2.27815 3.39497,-7.15164 3.41519,-13.69028 0.0174,-5.63477 1.73244,-13.08971 4.24792,-18.46516 2.61645,-5.59123 9.51898,-12.75417 14.93541,-15.49889 5.11429,-2.5916 13.62757,-4.68845 19.03532,-4.68845 7.68865,0 11.7548,-1.12802 14.84811,-4.11914 8.11199,-7.84397 26.02453,-40.33348 35.73159,-64.80943 8.33421,-21.01438 14.82539,-46.9029 17.7306,-70.71429 1.46163,-11.97967 1.2545,-43.98324 -0.36289,-56.07143 -5.19048,-38.79287 -16.95806,-73.1411 -37.44087,-109.28571 -8.11122,-14.31332 -14.84748,-23.71437 -18.25534,-25.47695 -1.14928,-0.59442 -5.91452,-1.35235 -11.07142,-1.76096 -10.46808,-0.82944 -17.55639,-2.88339 -23.44917,-6.79479 -9.74514,-6.46846 -15.9121,-18.91205 -15.94926,-32.18215 -0.0196,-7.01443 -1.27233,-11.56206 -3.84675,-13.96482 -2.97454,-2.77619 -18.24255,-12.84845 -27.59422,-18.2038 -19.21038,-11.00109 -38.73855,-19.18026 -62.61859,-26.22713 -6.70356,-1.97819 -26.17324,-6.68029 -32.08616,-7.7491 -0.42689,-0.0772 -3.90982,2.75255 -7.73983,6.28827 -13.21066,12.19553 -18.59088,14.64876 -32.09495,14.63438 -13.0902,-0.0139 -18.54427,-2.19475 -29.08397,-11.62917 -3.7035,-3.31513 -7.46254,-6.82068 -8.35341,-7.79012 l -1.61977,-1.76261 -10.87855,2.39528 c -18.13768,3.99361 -36.28031,9.51099 -52.31049,15.9082 -22.69104,9.05538 -59.0037,30.4684 -62.26675,36.71776 -0.63915,1.22411 -1.31856,5.58284 -1.69234,10.8572 -1.18939,16.78324 -6.55719,27.09008 -17.46948,33.54356 -6.13342,3.62727 -12.0877,5.2381 -22.18823,6.00264 -4.8648,0.36824 -9.72941,1.09336 -10.81024,1.61139 -5.96547,2.85917 -23.92875,33.33911 -35.91489,60.94006 -10.31361,23.74954 -18.49425,56.75064 -20.77935,83.82489 -1.05422,12.49053 -0.47935,39.20641 1.08581,50.46082 2.62711,18.89055 7.03709,37.43569 13.19622,55.49364 10.89576,31.94526 34.90752,75.25636 43.54236,78.53931 0.95448,0.3629 5.62613,0.95678 10.38145,1.31975 10.2691,0.78382 16.48887,2.55272 22.25268,6.32866 10.96572,7.18378 15.49005,16.15899 16.6922,33.11337 0.72405,10.21152 1.08568,11.13375 5.90274,15.05315 7.49933,6.10181 31.89205,20.73159 43.28581,25.9611 19.15256,8.79062 49.6775,19.1818 67.87922,23.10716 8.06863,1.74006 8.8282,1.73154 11.27075,-0.12649 z"
         id="path833"
         inkscape:connector-curvature="0"
         transform="matrix(0.21302383,0,0,0.21302383,150.02641,153.17472)" />
      <path
         style="opacity:1;fill:#a5a5a5;fill-opacity:1;stroke:none;stroke-width:7.63579893;stroke-miterlimit:4;stroke-dasharray:none;stroke-opacity:1"
         d="m 379.98773,479.01626 c -14.24121,-3.83408 -21.45163,-7.76639 -31.89937,-17.39678 -42.65191,-39.31516 -32.68706,-107.3371 19.30678,-131.79166 11.88079,-5.58796 15.07074,-6.18366 33.34082,-6.2262 18.44226,-0.0429 21.34757,0.49644 33.33504,6.18872 48.85645,23.19961 61.56984,86.51837 25.24851,125.74974 -12.53043,13.53437 -27.55109,21.83418 -44.55325,24.61836 -15.5765,2.55072 -21.82382,2.34555 -34.77853,-1.14218 z"
         id="path835"
         inkscape:connector-curvature="0"
         transform="matrix(0.21302383,0,0,0.21302383,150.02641,153.17472)" />
      <path
         style="opacity:1;fill:#a5a5a5;fill-opacity:1;stroke:none;stroke-width:7.63579893;stroke-miterlimit:4;stroke-dasharray:none;stroke-opacity:1"
         d="m 384.46913,727.80252 c -3.39092,-1.47694 -10.66402,-7.77187 -16.16244,-13.98871 -9.98505,-11.28967 -10.0214,-11.30854 -30.08569,-15.61296 -36.02241,-7.72795 -67.3529,-20.67433 -103.83296,-42.90583 l -16.84535,-10.26579 -17.49984,0.4585 c -20.72053,0.54288 -28.39857,-2.6092 -37.44936,-15.37419 -4.88952,-6.89603 -5.82075,-10.2158 -5.89193,-21.00417 -0.0465,-7.04749 0.52527,-14.67873 1.27059,-16.95832 0.942,-2.88117 -0.88752,-7.80837 -6.00129,-16.16244 C 126.81605,534.8947 116.57523,512.16762 108.13941,478.715 100.73247,449.34243 97.966614,421.05311 99.290174,388.20435 101.55448,332.00764 116.88885,283.52078 147.79299,234.8397 c 9.18551,-14.46927 11.15846,-19.03092 10.04867,-23.23351 -2.42202,-9.17177 -1.30742,-27.23563 2.08421,-33.778 7.87254,-15.18595 23.62758,-22.13578 44.99393,-19.84764 12.78259,1.3689 12.91586,1.32969 27.55884,-8.10816 31.97408,-20.60828 73.81038,-37.71303 109.17403,-44.63575 17.56495,-3.43849 17.73821,-3.53213 24.84839,-13.428969 17.22933,-23.98197 51.83869,-23.802471 68.61946,0.355892 l 6.26911,9.025287 24.49127,5.46658 c 36.06463,8.04981 67.15605,20.95245 98.48834,40.87171 l 16.17388,10.2824 19.19289,0.0913 c 22.34537,0.10628 29.24677,2.84558 38.15648,15.14507 6.8952,9.51856 8.94429,20.28347 6.39402,33.59122 -1.87555,9.78696 -1.81389,9.96009 11.16499,31.35737 31.11959,51.3044 44.18506,93.37846 46.64541,150.20987 1.42226,32.85262 -1.2913,60.87577 -8.7644,90.51065 -8.4031,33.3229 -18.74142,56.30564 -43.53522,96.78169 -6.6232,10.81241 -6.95712,12.17775 -5.39508,22.05922 3.17463,20.08256 -4.5392,38.01368 -19.38349,45.05776 -5.42446,2.57407 -11.55851,3.3157 -24.16093,2.92114 l -16.89066,-0.52882 -16.8643,10.27742 c -36.49943,22.24345 -67.82289,35.18807 -103.8519,42.91744 -20.06656,4.3049 -20.09951,4.32202 -30.09194,15.62007 -5.50186,6.22074 -12.97302,12.55126 -16.60262,14.06779 -8.30287,3.46916 -24.02151,3.42694 -32.08724,-0.0863 z m -11.92256,-64.65211 c 18.61482,-15.16352 37.153,-15.20463 55.5384,-0.12324 6.05447,4.96648 12.68138,9.02996 14.72647,9.02996 5.64013,0 33.86807,-7.51151 50.3495,-13.39812 17.35485,-6.19854 44.5886,-20.05702 60.10139,-30.58388 11.70688,-7.9442 11.49291,-7.50234 15.20245,-31.3949 1.46476,-9.4344 12.7595,-22.58214 21.80806,-25.38586 3.538,-1.09628 11.26464,-2.60411 17.17035,-3.35075 9.84008,-1.24409 11.30987,-2.14236 17.58359,-10.74641 10.07249,-13.81384 26.00888,-45.32179 32.84959,-64.94723 12.44118,-35.69261 15.37933,-52.58289 15.46352,-88.89343 0.0822,-35.44645 -2.32725,-51.72649 -12.24345,-82.72628 -6.48199,-20.2638 -29.2157,-66.01341 -37.54549,-75.557 -5.79056,-6.63434 -8.22689,-7.83008 -18.99895,-9.32464 -23.76887,-3.29769 -34.40723,-13.3902 -37.11311,-35.20877 -0.88982,-7.17511 -2.22563,-14.029 -2.96841,-15.23087 -1.73989,-2.81519 -21.17191,-15.82122 -35.44514,-23.72375 -15.96759,-8.84064 -44.75431,-19.91478 -64.64977,-24.87053 -9.44492,-2.35264 -18.69041,-4.72545 -20.54551,-5.27292 -2.08285,-0.61469 -7.27678,2.47177 -13.57976,8.06972 -19.76542,17.55449 -40.0635,17.53381 -58.87268,-0.06 l -9.63177,-9.00939 -20.91104,5.27052 c -35.25954,8.88697 -70.55929,24.64542 -95.02166,42.41938 -8.42346,6.12035 -9.59857,7.935 -10.7169,16.54933 -1.99684,15.38139 -2.67039,17.59721 -7.55016,24.8383 -6.28216,9.3221 -15.19936,14.08673 -30.28239,16.18046 -16.06775,2.23043 -20.52356,6.97469 -37.62475,40.06041 -23.07016,44.63389 -31.55241,78.66405 -31.55241,126.58595 0,34.39056 2.41367,50.42195 12.22634,81.20616 6.06325,19.02156 26.44045,60.66407 36.03703,73.64465 6.34716,8.58533 7.86015,9.50503 17.67883,10.74641 16.91797,2.13891 23.09362,4.78006 30.59701,13.08541 6.9544,7.69769 8.04523,10.70794 10.41439,28.73957 1.42329,10.83259 4.2777,13.52525 30.33538,28.61655 25.57805,14.81348 75.38908,33.27814 90.54492,33.56444 3.83182,0.0723 9.26553,-2.80336 16.62613,-8.79926 z"
         id="path837"
         inkscape:connector-curvature="0"
         transform="matrix(0.21302383,0,0,0.21302383,150.02641,153.17472)" />
      <path
         style="opacity:1;fill:#c8c8c8;fill-opacity:1;stroke:none;stroke-width:7.63579893;stroke-miterlimit:4;stroke-dasharray:none;stroke-opacity:1"
         d="m 339.11666,667.7881 c -31.52743,-8.37275 -78.45954,-30.16259 -95.36662,-44.27724 -5.49777,-4.58975 -6.81836,-7.54401 -8.90314,-19.91698 -3.94988,-23.44217 -14.76867,-33.59662 -38.39229,-36.03479 -9.78756,-1.01017 -11.86816,-2.07869 -18.00278,-9.24562 -8.94356,-10.44853 -31.46258,-56.27348 -38.05002,-77.42965 -9.74155,-31.28588 -11.9548,-49.00361 -10.82017,-86.61856 1.49214,-49.46701 8.27176,-74.47398 33.30457,-122.8456 13.23309,-25.57068 20.1665,-32.61373 34.07372,-34.61252 23.24685,-3.34112 35.47434,-15.33121 38.24383,-37.50132 1.724,-13.80081 5.16715,-17.75634 26.39607,-30.32405 26.45265,-15.66019 60.13684,-28.96313 87.85293,-34.69587 l 11.34626,-2.34684 9.86694,8.30052 c 11.74392,9.87952 18.23491,12.59922 30.07,12.59922 11.8064,0 18.32534,-2.71912 29.93702,-12.48709 11.55859,-9.7233 13.41816,-9.66483 47.98084,1.50853 27.72412,8.96261 41.21192,14.92494 61.48319,27.17888 22.68805,13.71486 24.40561,15.66132 26.03222,29.50134 2.71699,23.11716 15.05885,35.17904 39.19634,38.30715 9.07103,1.17556 11.68011,2.55214 17.31541,9.13571 7.94217,9.27863 25.47645,42.25397 32.76941,61.62684 12.46229,33.10459 15.35266,48.15879 16.44363,85.64495 1.53234,52.65262 -4.95973,81.95242 -28.92168,130.52807 -15.50087,31.42336 -24.61829,43.21817 -33.40774,43.21817 -22.19182,0 -38.27527,12.10077 -42.05223,31.63904 -1.25433,6.48864 -2.71784,13.84764 -3.25227,16.35336 -2.98878,14.01349 -74.1596,48.17345 -116.30646,55.8238 -6.42626,1.16646 -8.39956,0.4375 -15.99604,-5.90919 -12.65449,-10.57252 -18.58614,-13.0542 -31.2018,-13.0542 -11.62059,0 -23.97567,4.67907 -29.30226,11.09723 -2.88065,3.47097 -12.79837,9.19344 -15.56904,8.98327 -0.88855,-0.0675 -8.43408,-1.93335 -16.76784,-4.14656 z m 73.17333,-30.16499 c 9.17434,-2.54797 18.53597,-10.17312 24.93503,-20.30988 4.26999,-6.76413 6.7066,-8.18371 22.11159,-12.88252 71.74426,-21.88336 127.02084,-79.43621 145.58151,-151.5766 4.84226,-18.82052 5.14555,-22.6916 4.43216,-56.56854 -0.75365,-35.78831 -0.88588,-36.71822 -8.33143,-58.58885 -4.16108,-12.22285 -10.82839,-28.13275 -14.81621,-35.35534 -27.37938,-49.58843 -71.29225,-85.23367 -126.01999,-102.29373 -16.74477,-5.21978 -18.38263,-6.22528 -24.32494,-14.93328 -10.15126,-14.87592 -17.98093,-19.14358 -35.12175,-19.14358 -17.12778,0 -24.97095,4.26835 -35.08928,19.09602 -5.84743,8.56896 -7.70884,9.7324 -24.01058,15.00728 -70.33613,22.7592 -117.44279,68.63845 -141.30448,137.62263 l -7.68708,22.22335 v 41.41626 c 0,39.9526 0.20376,42.05883 5.76576,59.599 10.19504,32.15077 26.38498,60.52622 48.68504,85.32827 21.18146,23.55797 60.64344,47.67552 95.30957,58.24934 14.9808,4.56942 17.61736,6.09811 21.78804,12.6328 11.96012,18.73936 28.69728,25.86522 48.09704,20.47737 z"
         id="path841"
         inkscape:connector-curvature="0"
         transform="matrix(0.21302383,0,0,0.21302383,150.02641,153.17472)" />
      <path
         style="opacity:1;fill:#c8c8c8;fill-opacity:1;stroke:none;stroke-width:7.63579893;stroke-miterlimit:4;stroke-dasharray:none;stroke-opacity:1"
         d="M 369.29699,752.8601 C 258.72298,739.48576 167.78793,684.34654 107.64296,594.20403 47.825524,504.5524 33.650554,397.28855 67.604752,291.2297 c 7.523592,-23.50059 31.066154,-69.77328 46.768918,-91.92388 17.49966,-24.68535 58.75881,-65.92171 83.32163,-83.27561 78.95639,-55.783543 176.19527,-77.230345 267.81057,-59.067731 34.53439,6.846397 58.30512,15.022909 90.79358,31.230643 37.29393,18.605058 61.24394,35.970948 91.93144,66.658438 28.8365,28.83652 47.14168,53.52745 64.4109,86.88067 58.79765,113.55991 51.35277,247.61984 -19.64789,353.79914 -55.07624,82.36483 -139.16562,137.01683 -235.68939,153.18098 -26.17025,4.38255 -69.27176,6.41391 -88.00752,4.14775 z m 47.79997,-24.30983 c 3.03179,-1.1527 10.59135,-7.38338 16.79904,-13.84599 10.71256,-11.15251 12.1088,-11.93069 27.44912,-15.29881 37.47956,-8.229 72.69562,-22.62434 106.021,-43.33841 17.06336,-10.60607 17.17427,-10.64101 29.57915,-9.31255 32.29821,3.45884 51.55525,-15.18205 48.4453,-46.89525 -1.33914,-13.65574 -1.33369,-13.6753 8.05453,-28.8173 35.04102,-56.51681 49.32647,-105.37273 49.32647,-168.69548 0,-62.34904 -12.93189,-108.65229 -45.39132,-162.52577 -13.33105,-22.12579 -13.46732,-22.49991 -12.1206,-33.27858 2.07503,-16.60799 -0.4021,-26.67926 -8.87029,-36.06404 -9.94467,-11.02108 -17.08425,-13.59868 -37.66639,-13.59868 h -17.30528 l -20.64033,-12.48077 c -33.01997,-19.96646 -65.00285,-32.48313 -104.58031,-40.92803 -12.95401,-2.76408 -15.76421,-4.125101 -18.66826,-9.041287 -9.97409,-16.884781 -28.79672,-24.510499 -48.1245,-19.496941 -8.8559,2.29719 -12.65565,4.861816 -21.91429,14.790917 -10.65904,11.430931 -11.8847,12.136831 -25.34288,14.595921 -32.86152,6.00449 -77.23576,23.95925 -107.71111,43.58221 l -14.77707,9.5149 -19.71769,0.23662 c -17.3005,0.20761 -20.58851,0.83345 -26.82136,5.1052 -3.90703,2.67771 -9.29455,8.06686 -11.97226,11.97588 -4.28,6.24807 -4.88417,9.44527 -4.99752,26.44615 l -0.12894,19.33884 -13.45038,22.06303 c -22.00865,36.10142 -34.39557,69.88199 -40.94857,111.67153 -4.569437,29.14002 -3.145968,86.1648 2.81856,112.91283 7.95147,35.65845 19.49557,64.05822 39.10526,96.20322 l 12.69144,20.80431 0.0208,19.50875 c 0.02,18.7968 0.24979,19.79214 6.2959,27.27412 10.51932,13.01751 17.33403,15.84659 38.1716,15.84659 h 18.18274 l 17.6945,10.75236 c 33.71939,20.49018 66.73954,33.82559 103.5238,41.80878 15.17356,3.29306 16.78049,4.16553 26.26397,14.25976 5.55584,5.91364 12.82893,12.15715 16.16244,13.87447 6.93558,3.57301 26.35678,4.16417 34.54374,1.0515 z"
         id="path843"
         inkscape:connector-curvature="0"
         transform="matrix(0.21302383,0,0,0.21302383,150.02641,153.17472)" />
      <path
         style="opacity:1;fill:#c8c8c8;fill-opacity:1;stroke:none;stroke-width:7.63579893;stroke-miterlimit:4;stroke-dasharray:none;stroke-opacity:1"
         d="m 431.66944,572.99785 c -21.03688,-18.03189 -38.93805,-18.59418 -60.07429,-1.88694 -11.55013,9.12986 -13.57971,9.43117 -28.63574,4.25113 C 285.6308,555.6381 242.84247,510.43369 224.66973,450.39305 c -4.72951,-15.62576 -5.37788,-21.23617 -5.43579,-47.03642 -0.0493,-21.95359 0.85094,-32.79551 3.59243,-43.26591 16.20067,-61.87423 61.83747,-111.46395 121.09436,-131.58321 l 17.06912,-5.79541 8.97495,8.27282 c 12.50765,11.52915 16.54984,13.27269 30.77116,13.27269 14.22132,0 18.26352,-1.74354 30.77117,-13.27269 l 8.97494,-8.27282 17.06913,5.79541 c 60.16732,20.42837 107.08209,72.05746 121.24898,133.43287 5.84894,25.33946 4.92886,65.29897 -2.03699,88.46577 -18.41157,61.2328 -60.96728,105.41778 -121.32777,125.97289 -7.69502,2.62043 -14.05898,4.75856 -14.14214,4.75139 -0.0832,-0.008 -4.4139,-3.66683 -9.62384,-8.13258 z m 19.80368,-34.68918 c 39.30556,-14.79037 67.92845,-42.36806 83.71992,-80.66276 8.32532,-20.18911 10.73092,-36.74131 9.48942,-65.29404 -0.91088,-20.94914 -1.94628,-26.64901 -7.4124,-40.80482 -6.97052,-18.05186 -17.87223,-36.11566 -29.69198,-49.1987 -15.7866,-17.47389 -45.47973,-34.9134 -70.39602,-41.34534 -16.09716,-4.15535 -56.79504,-4.15535 -72.8922,0 -50.3434,12.99574 -91.36268,53.68267 -104.02167,103.17886 -4.9901,19.51109 -5.42146,55.03056 -0.88006,72.46616 14.61345,56.10484 53.32076,93.39503 113.06356,108.9242 2.22234,0.57765 16.87182,0.69969 32.55441,0.27119 26.4091,-0.72159 29.83898,-1.27776 46.46702,-7.53475 z"
         id="path847"
         inkscape:connector-curvature="0"
         transform="matrix(0.21302383,0,0,0.21302383,150.02641,153.17472)" />
      <path
         style="opacity:1;fill:#c8c8c8;fill-opacity:1;stroke:none;stroke-width:7.63579893;stroke-miterlimit:4;stroke-dasharray:none;stroke-opacity:1"
         d="m 381.59507,515.45971 c -41.34824,-9.28652 -76.05198,-39.27227 -88.9971,-76.89792 -7.50841,-21.82357 -8.79169,-35.27019 -5.10325,-53.47341 5.6133,-27.70279 14.75605,-44.80948 34.71507,-64.95418 18.20626,-18.37564 54.14826,-33.8851 78.52617,-33.8851 20.52358,0 50.37198,11.22343 70.20425,26.39782 30.19986,23.107 49.862,68.68327 44.04399,102.09275 -4.99117,28.66148 -17.96468,53.2651 -37.50232,71.12142 -13.83521,12.6446 -24.98965,19.12814 -43.63282,25.36169 -19.71364,6.59147 -35.91967,7.9055 -52.25399,4.23693 z m 53.17609,-40.30465 c 14.96804,-7.10443 31.4931,-23.54955 38.96185,-38.77338 5.31519,-10.83414 5.79407,-13.65134 5.78538,-34.0352 -0.008,-19.85658 -0.5851,-23.45366 -5.41453,-33.77559 -7.54847,-16.13334 -21.73186,-30.57938 -37.76852,-38.46793 -12.56812,-6.18235 -14.55618,-6.54838 -35.56747,-6.54838 -19.91716,0 -23.46892,0.56884 -33.8075,5.41453 -16.04052,7.51819 -30.58598,21.7569 -38.3627,37.55366 -8.22492,16.70718 -10.25661,42.45045 -4.69274,59.46099 7.65851,23.41456 27.10249,43.80197 49.83318,52.2511 16.26751,6.04672 44.84271,4.60478 61.03305,-3.0798 z"
         id="path851"
         inkscape:connector-curvature="0"
         transform="matrix(0.21302383,0,0,0.21302383,150.02641,153.17472)" />
    </g>
  </g>
</svg>
